<svg xmlns="http://www.w3.org/2000/svg" width="361.044" height="30.322" viewBox="0 0 361.044 30.322"><title>logo_lernsax</title><path d="M52.831,26.468V3.011h3.4V23.749H65.24v2.719Z" style="fill:#313237"/><path d="M78.635,26.3a18.1,18.1,0,0,1-4.045.544c-5.78,0-8.024-3.944-8.024-9.248,0-4.419,1.938-7.683,6.6-7.683,3.943,0,5.847,2.788,5.847,6.494v.781H69.626c0,3.638,1.87,7.276,5.95,7.276a8.425,8.425,0,0,0,3.059-.578ZM75.949,15.148a2.777,2.777,0,0,0-2.689-2.861c-.089,0-.179,0-.268,0A3.129,3.129,0,0,0,70,14.162a2.61,2.61,0,0,0-.238.986Z" style="fill:#313237"/><path d="M82.817,26.468V10.286h3.06V13.55h.068a5.071,5.071,0,0,1,5-3.638v3.332c-3.91,0-5.066,2.822-5.066,6.357v6.867Z" style="fill:#313237"/><path d="M103.692,26.468V17.63c0-.646,0-1.327-.034-2.006-.1-1.5-.442-2.652-2.176-2.652-2.991,0-4.283,4.249-4.283,6.629v6.867h-3.06V10.286H97.2v3.468h.068c.918-2.312,2.584-3.842,5.133-3.842,3.23,0,4.352,2.516,4.352,5.338V26.468Z" style="fill:#313237"/><path d="M111,22.389a12.525,12.525,0,0,0,6.222,1.734c2.175,0,4.453-.918,4.453-3.468,0-2.447-2.006-3.434-3.807-4.521l-2.142-1.258c-2.618-1.462-5.1-2.788-5.1-6.188,0-4.521,3.876-6.051,7.786-6.051a21.885,21.885,0,0,1,5.337.68V6.512a18.131,18.131,0,0,0-5.507-1.155c-1.938,0-3.876.849-3.876,3.059,0,1.87,2.414,3.128,3.808,3.944l2.311,1.36c2.72,1.53,4.93,2.957,4.93,6.459,0,4.9-4.182,6.664-8.465,6.664a18.724,18.724,0,0,1-5.95-.921Z" style="fill:#313237"/><path d="M136.57,26.468v-2h-.07a4.622,4.622,0,0,1-4.181,2.38c-2.72,0-4.59-1.564-4.59-4.352,0-4.556,5.338-5.3,8.839-5.3V14.706a2.264,2.264,0,0,0-2.1-2.419,2.239,2.239,0,0,0-.384,0,2.316,2.316,0,0,0-2.584,2.482h-3.23c0-3.6,2.822-4.862,6.052-4.862q5.3,0,5.3,5.2V26.468Zm0-7.241h-.612c-1.9,0-4.827.851-4.827,3.162a1.938,1.938,0,0,0,1.768,2.074c2.108,0,3.671-2.413,3.671-4.318Z" style="fill:#313237"/><path d="M153.876,26.468l-3.943-5.88-4.012,5.88h-3.57l5.814-8.533-5.134-7.649h3.57l3.3,4.964,3.3-4.964h3.57l-5.134,7.649,5.814,8.533Z" style="fill:#313237"/><rect y="25.33" width="39.719" height="4.992" style="fill:#176FC5"/><path d="M4.979,0V21.463H34.741V0ZM31.051,17.708H8.669V3.754H31.051Z" style="fill:#313237"/><path d="M180.183,19.873a6.486,6.486,0,0,1-1.727,4.864,6.833,6.833,0,0,1-4.971,1.684h-3.559V13.572h3.937a6.294,6.294,0,0,1,4.658,1.661A6.27,6.27,0,0,1,180.183,19.873Zm-1.582.053a5.171,5.171,0,0,0-1.262-3.788,5.055,5.055,0,0,0-3.748-1.274H171.42V25.129h1.819a5.532,5.532,0,0,0,4.017-1.314A5.2,5.2,0,0,0,178.6,19.926Z" style="fill:#313237"/><path d="M182.705,14.178a.971.971,0,0,1,.246-.734.91.91,0,0,1,1.222,0,.95.95,0,0,1,.255.729.966.966,0,0,1-.255.734.852.852,0,0,1-.607.242.843.843,0,0,1-.615-.242A.988.988,0,0,1,182.705,14.178Zm1.582,12.243h-1.459V16.788h1.459Z" style="fill:#313237"/><path d="M191.45,26.6a4.425,4.425,0,0,1-3.37-1.3,5.031,5.031,0,0,1-1.235-3.612,5.585,5.585,0,0,1,1.147-3.7,3.808,3.808,0,0,1,3.08-1.371,3.636,3.636,0,0,1,2.866,1.192,4.563,4.563,0,0,1,1.054,3.141v.923h-6.636a3.821,3.821,0,0,0,.857,2.575,2.965,2.965,0,0,0,2.29.879,7.769,7.769,0,0,0,3.076-.65v1.3a7.87,7.87,0,0,1-1.463.479A8.274,8.274,0,0,1,191.45,26.6Zm-.395-8.763a2.381,2.381,0,0,0-1.85.756,3.484,3.484,0,0,0-.813,2.092h5.036a3.211,3.211,0,0,0-.615-2.114A2.169,2.169,0,0,0,191.055,17.834Z" style="fill:#313237"/><path d="M208.062,26.421l-4.36-11.39h-.07q.123,1.353.123,3.216v8.174h-1.38V13.572h2.25l4.069,10.6h.071l4.1-10.6H215.1V26.421h-1.5V18.142q0-1.425.123-3.094h-.07l-4.394,11.373Z" style="fill:#313237"/><path d="M222.476,26.6a4.427,4.427,0,0,1-3.371-1.3,5.036,5.036,0,0,1-1.235-3.612,5.585,5.585,0,0,1,1.147-3.7,3.811,3.811,0,0,1,3.081-1.371,3.633,3.633,0,0,1,2.865,1.192,4.564,4.564,0,0,1,1.055,3.141v.923h-6.636a3.816,3.816,0,0,0,.857,2.575,2.963,2.963,0,0,0,2.289.879,7.766,7.766,0,0,0,3.076-.65v1.3a7.846,7.846,0,0,1-1.463.479A8.271,8.271,0,0,1,222.476,26.6Zm-.4-8.763a2.383,2.383,0,0,0-1.85.756,3.484,3.484,0,0,0-.813,2.092h5.036a3.211,3.211,0,0,0-.615-2.114A2.166,2.166,0,0,0,222.08,17.834Z" style="fill:#313237"/><path d="M235.976,23a3.151,3.151,0,0,1-1.231,2.645,5.333,5.333,0,0,1-3.34.95,8.371,8.371,0,0,1-3.515-.589V24.566a9.225,9.225,0,0,0,1.722.528,9.061,9.061,0,0,0,1.846.193,3.717,3.717,0,0,0,2.25-.567,1.86,1.86,0,0,0,.756-1.577,2.028,2.028,0,0,0-.268-1.094,2.5,2.5,0,0,0-.9-.787,12.562,12.562,0,0,0-1.912-.818,6.1,6.1,0,0,1-2.563-1.52,3.361,3.361,0,0,1-.768-2.294,2.853,2.853,0,0,1,1.116-2.364,4.637,4.637,0,0,1,2.953-.879,8.714,8.714,0,0,1,3.524.7l-.465,1.3a7.973,7.973,0,0,0-3.094-.668,3,3,0,0,0-1.855.51,1.68,1.68,0,0,0-.668,1.414,2.17,2.17,0,0,0,.246,1.1,2.318,2.318,0,0,0,.832.782,10.253,10.253,0,0,0,1.788.787,7.1,7.1,0,0,1,2.782,1.546A3.047,3.047,0,0,1,235.976,23Z" style="fill:#313237"/><path d="M244.308,26.421l-.29-1.371h-.071a4.056,4.056,0,0,1-1.436,1.226,4.4,4.4,0,0,1-1.789.321,3.215,3.215,0,0,1-2.246-.739,2.691,2.691,0,0,1-.813-2.1q0-2.918,4.667-3.059l1.635-.053v-.6a2.447,2.447,0,0,0-.487-1.674,2.012,2.012,0,0,0-1.561-.541,6.36,6.36,0,0,0-2.725.738l-.448-1.116a6.82,6.82,0,0,1,1.56-.606,6.736,6.736,0,0,1,1.7-.22,3.667,3.667,0,0,1,2.553.765,3.189,3.189,0,0,1,.831,2.452v6.574Zm-3.3-1.028a2.956,2.956,0,0,0,2.139-.747,2.762,2.762,0,0,0,.779-2.092v-.87l-1.459.061a5.307,5.307,0,0,0-2.509.541,1.627,1.627,0,0,0-.77,1.489,1.5,1.5,0,0,0,.479,1.2A1.987,1.987,0,0,0,241.012,25.393Z" style="fill:#313237"/><path d="M250.715,21.49l-3.349-4.7h1.661l2.54,3.691,2.532-3.691h1.643l-3.348,4.7,3.524,4.931h-1.652l-2.7-3.9-2.724,3.9H247.19Z" style="fill:#313237"/><path d="M261.692,22.264V20.928h4.316v1.336Z" style="fill:#313237"/><path d="M280.439,23a3.15,3.15,0,0,1-1.23,2.645,5.335,5.335,0,0,1-3.34.95,8.371,8.371,0,0,1-3.515-.589V24.566a9.225,9.225,0,0,0,1.722.528,9.061,9.061,0,0,0,1.846.193,3.717,3.717,0,0,0,2.25-.567,1.86,1.86,0,0,0,.756-1.577,2.028,2.028,0,0,0-.268-1.094,2.508,2.508,0,0,0-.9-.787,12.562,12.562,0,0,0-1.912-.818,6.1,6.1,0,0,1-2.563-1.52,3.356,3.356,0,0,1-.768-2.294,2.853,2.853,0,0,1,1.116-2.364,4.637,4.637,0,0,1,2.953-.879,8.714,8.714,0,0,1,3.524.7l-.466,1.3a7.965,7.965,0,0,0-3.093-.668,3,3,0,0,0-1.855.51,1.68,1.68,0,0,0-.668,1.414,2.17,2.17,0,0,0,.246,1.1,2.314,2.314,0,0,0,.831.782,10.324,10.324,0,0,0,1.788.787,7.1,7.1,0,0,1,2.783,1.546A3.047,3.047,0,0,1,280.439,23Z" style="fill:#313237"/><path d="M286.7,26.6a4.11,4.11,0,0,1-3.238-1.287,5.292,5.292,0,0,1-1.147-3.644,5.452,5.452,0,0,1,1.165-3.735,4.189,4.189,0,0,1,3.317-1.319,6.562,6.562,0,0,1,1.389.15,4.564,4.564,0,0,1,1.089.351l-.448,1.24a6.865,6.865,0,0,0-1.054-.321,4.714,4.714,0,0,0-1.011-.128q-2.935,0-2.936,3.744a4.463,4.463,0,0,0,.716,2.725,2.494,2.494,0,0,0,2.123.949,6.5,6.5,0,0,0,2.47-.518V26.1A5.265,5.265,0,0,1,286.7,26.6Z" style="fill:#313237"/><path d="M298.009,26.421V20.189a2.513,2.513,0,0,0-.536-1.757,2.184,2.184,0,0,0-1.679-.58,2.748,2.748,0,0,0-2.219.826,4.177,4.177,0,0,0-.7,2.707v5.036h-1.459V12.746h1.459v4.139a9,9,0,0,1-.07,1.239h.088a2.972,2.972,0,0,1,1.226-1.094,3.989,3.989,0,0,1,1.815-.4,3.718,3.718,0,0,1,2.65.84,3.536,3.536,0,0,1,.883,2.667v6.284Z" style="fill:#313237"/><path d="M303.836,16.788v6.249a2.517,2.517,0,0,0,.536,1.758,2.183,2.183,0,0,0,1.679.58,2.741,2.741,0,0,0,2.211-.826,4.173,4.173,0,0,0,.7-2.7V16.788h1.459v9.633h-1.2L309,25.129h-.079a2.913,2.913,0,0,1-1.243,1.09,4.189,4.189,0,0,1-1.816.378,3.682,3.682,0,0,1-2.632-.835,3.552,3.552,0,0,1-.875-2.672v-6.3Z" style="fill:#313237"/><path d="M314.972,26.421h-1.459V12.746h1.459Z" style="fill:#313237"/><path d="M321.915,26.6a4.109,4.109,0,0,1-3.238-1.287,5.293,5.293,0,0,1-1.148-3.644,5.457,5.457,0,0,1,1.165-3.735,4.192,4.192,0,0,1,3.318-1.319,6.546,6.546,0,0,1,1.388.15,4.574,4.574,0,0,1,1.09.351l-.448,1.24a6.844,6.844,0,0,0-1.055-.321,4.705,4.705,0,0,0-1.01-.128q-2.935,0-2.936,3.744a4.456,4.456,0,0,0,.716,2.725,2.491,2.491,0,0,0,2.123.949,6.5,6.5,0,0,0,2.47-.518V26.1A5.265,5.265,0,0,1,321.915,26.6Z" style="fill:#313237"/><path d="M328.094,26.421h-1.459V12.746h1.459Z" style="fill:#313237"/><path d="M339.5,21.6a5.313,5.313,0,0,1-1.187,3.678,4.177,4.177,0,0,1-3.278,1.323,4.337,4.337,0,0,1-2.294-.607,4,4,0,0,1-1.547-1.74,6.07,6.07,0,0,1-.545-2.654,5.3,5.3,0,0,1,1.178-3.669,4.166,4.166,0,0,1,3.27-1.315,4.077,4.077,0,0,1,3.212,1.345A5.3,5.3,0,0,1,339.5,21.6Zm-7.339,0a4.572,4.572,0,0,0,.738,2.812,2.93,2.93,0,0,0,4.347,0,4.553,4.553,0,0,0,.742-2.816,4.479,4.479,0,0,0-.742-2.79,2.611,2.611,0,0,0-2.193-.954,2.567,2.567,0,0,0-2.162.94A4.523,4.523,0,0,0,332.163,21.6Z" style="fill:#313237"/><path d="M343.431,16.788v6.249a2.513,2.513,0,0,0,.536,1.758,2.183,2.183,0,0,0,1.679.58,2.739,2.739,0,0,0,2.21-.826,4.172,4.172,0,0,0,.7-2.7V16.788h1.459v9.633h-1.2l-.211-1.292h-.079a2.91,2.91,0,0,1-1.244,1.09,4.181,4.181,0,0,1-1.815.378,3.682,3.682,0,0,1-2.632-.835,3.552,3.552,0,0,1-.875-2.672v-6.3Z" style="fill:#313237"/><path d="M359.664,25.129h-.079a3.43,3.43,0,0,1-3.023,1.468,3.579,3.579,0,0,1-2.941-1.292,5.69,5.69,0,0,1-1.05-3.674,5.783,5.783,0,0,1,1.055-3.7,3.55,3.55,0,0,1,2.936-1.319,3.5,3.5,0,0,1,3,1.424h.115l-.062-.694-.035-.677V12.746h1.459V26.421h-1.187Zm-2.918.246a2.654,2.654,0,0,0,2.166-.813,4.1,4.1,0,0,0,.673-2.624v-.307a4.841,4.841,0,0,0-.681-2.922,2.588,2.588,0,0,0-2.175-.875,2.234,2.234,0,0,0-1.965,1,4.96,4.96,0,0,0-.681,2.816,4.758,4.758,0,0,0,.677,2.787A2.291,2.291,0,0,0,356.746,25.375Z" style="fill:#313237"/></svg>